<svg width="112" height="112" viewBox="0 0 112 112" fill="none" xmlns="http://www.w3.org/2000/svg">
<path fill-rule="evenodd" clip-rule="evenodd" d="M52.8888 33.92C52.8341 34.1794 52.6795 34.4062 52.4591 34.5506C52.2386 34.695 51.9703 34.7452 51.7133 34.69L42.8871 32.794L34.715 71.534L43.5412 73.43C43.7948 73.4887 44.0153 73.6456 44.1553 73.8669C44.2952 74.0881 44.3433 74.356 44.2892 74.6128C44.235 74.8695 44.083 75.0945 43.866 75.2391C43.6489 75.3838 43.3842 75.4366 43.1289 75.386L32.363 73.075L41.3607 30.42L52.1256 32.732C52.3827 32.7872 52.6075 32.9432 52.7506 33.1656C52.8937 33.388 52.9434 33.6587 52.8888 33.918V33.92ZM90.5842 41.582L81.5865 84.235L70.8217 81.924C70.6943 81.8967 70.5735 81.8444 70.4662 81.77C70.3589 81.6956 70.2672 81.6005 70.1963 81.4904C70.1253 81.3802 70.0766 81.257 70.0529 81.1278C70.0292 80.9987 70.0309 80.866 70.058 80.7375C70.085 80.6091 70.1369 80.4872 70.2107 80.3789C70.2844 80.2707 70.3786 80.1781 70.4878 80.1066C70.597 80.035 70.7191 79.9859 70.8471 79.9619C70.9752 79.938 71.1066 79.9397 71.234 79.967L80.0612 81.863L88.2332 43.122L79.406 41.226C79.278 41.1994 79.1565 41.1475 79.0484 41.0732C78.9404 40.999 78.848 40.904 78.7765 40.7936C78.705 40.6832 78.6558 40.5596 78.6319 40.4299C78.6079 40.3003 78.6096 40.1671 78.6369 40.0382C78.6641 39.9092 78.7164 39.7869 78.7907 39.6784C78.865 39.5699 78.9598 39.4773 79.0697 39.4059C79.1796 39.3345 79.3024 39.2857 79.4311 39.2624C79.5597 39.2391 79.6917 39.2417 79.8193 39.27L90.5842 41.582Z" fill="#975A1C"/>
<path d="M46.3721 58.9835L58.1707 40.2305L63.5229 41.3785L66.7303 63.3535L61.2334 62.1735L60.8429 58.8385L53.543 57.2715L51.8393 60.1565L46.3721 58.9835ZM56.1805 52.8375L60.2234 53.7065L59.4602 47.3765L56.1805 52.8375Z" fill="#301B00"/>
<path fill-rule="evenodd" clip-rule="evenodd" d="M49.5043 27.5C49.4496 27.7593 49.295 27.9861 49.0745 28.1305C48.8541 28.2749 48.5858 28.3251 48.3288 28.27L39.5016 26.375L31.3295 65.115L40.1557 67.011C40.2831 67.0383 40.4039 67.0906 40.5112 67.165C40.6185 67.2394 40.7102 67.3344 40.7811 67.4446C40.852 67.5548 40.9008 67.678 40.9245 67.8072C40.9482 67.9363 40.9465 68.069 40.9194 68.1975C40.8923 68.326 40.8404 68.4478 40.7667 68.5561C40.6929 68.6643 40.5988 68.7569 40.4896 68.8284C40.3804 68.9 40.2583 68.9491 40.1302 68.9731C40.0022 68.997 39.8708 68.9953 39.7434 68.968L28.9775 66.656L37.9752 24.002L48.7411 26.315C48.9981 26.3701 49.223 26.5261 49.3661 26.7485C49.5092 26.9709 49.5589 27.2406 49.5043 27.5ZM87.1997 35.164L78.202 77.815L67.4362 75.505C67.1826 75.4463 66.9621 75.2894 66.8221 75.0681C66.6822 74.8469 66.6341 74.579 66.6882 74.3222C66.7424 74.0655 66.8943 73.8405 67.1114 73.6959C67.3285 73.5512 67.5932 73.4984 67.8485 73.549L76.6757 75.443L84.8487 36.703L76.0215 34.808C75.7659 34.7512 75.5429 34.5947 75.4012 34.3727C75.2595 34.1507 75.2106 33.8811 75.2652 33.6228C75.3198 33.3646 75.4734 33.1386 75.6925 32.9941C75.9116 32.8497 76.1785 32.7986 76.4348 32.852L87.1997 35.164Z" fill="#301B00"/>
<path d="M49.3745 67.2837C49.52 67.3536 49.6463 67.4583 49.7427 67.5887C49.839 67.7191 49.9024 67.8712 49.9273 68.0319C49.9522 68.1926 49.9378 68.3569 49.8856 68.5108C49.8333 68.6646 49.7446 68.8032 49.6272 68.9147L30.9896 86.5977C30.8582 86.7223 30.6956 86.8084 30.5193 86.8467C30.3429 86.885 30.1596 86.8741 29.989 86.815C29.8184 86.7559 29.667 86.651 29.5511 86.5116C29.4353 86.3722 29.3593 86.2034 29.3314 86.0237L24.8811 57.2187C24.8531 57.0386 24.8744 56.8543 24.9426 56.6856C25.0109 56.5168 25.1236 56.3701 25.2685 56.2613C25.4134 56.1525 25.585 56.0857 25.7648 56.0681C25.9446 56.0506 26.1257 56.0829 26.2886 56.1617L49.3745 67.2837Z" fill="#975A1C"/>
<path d="M39.1674 68.7505C39.3131 68.8204 39.4397 68.9251 39.5361 69.0556C39.6326 69.1861 39.696 69.3383 39.7209 69.4991C39.7458 69.6599 39.7315 69.8245 39.679 69.9784C39.6266 70.1323 39.5378 70.271 39.4202 70.3825L20.7826 88.0655C20.6511 88.1901 20.4884 88.2762 20.312 88.3145C20.1356 88.3527 19.9522 88.3417 19.7816 88.2825C19.611 88.2233 19.4596 88.1183 19.3438 87.9787C19.228 87.8392 19.1521 87.6703 19.1244 87.4905L14.6741 58.6855C14.6461 58.5054 14.6674 58.3211 14.7356 58.1524C14.8039 57.9836 14.9165 57.8369 15.0614 57.7281C15.2063 57.6193 15.3779 57.5525 15.5577 57.5349C15.7375 57.5174 15.9187 57.5497 16.0816 57.6285L39.1674 68.7505Z" fill="#301B00"/>
</svg>
