<svg width="180" height="110" viewBox="0 0 180 110" fill="none" xmlns="http://www.w3.org/2000/svg">
<path d="M0.775798 80.0324C3.88718 80.7315 6.99373 81.4531 10.099 82.1799C14.1512 83.1284 18.2009 84.0884 22.2495 85.053C26.9849 86.1812 31.7192 87.3158 36.4523 88.4539C41.626 89.6979 46.7988 90.9455 51.9712 92.1951C57.2649 93.4741 62.558 94.7547 67.8511 96.0361C73.0409 97.2925 78.2308 98.5494 83.4208 99.8052C88.1884 100.959 92.9562 102.112 97.7248 103.261C101.842 104.254 105.959 105.245 110.077 106.229C113.234 106.984 116.392 107.736 119.553 108.476C121.506 108.933 123.459 109.393 125.42 109.814C125.68 109.87 125.94 109.924 126.201 109.976C127.543 110.244 128.118 108.14 126.769 107.87C125.143 107.546 123.529 107.162 121.914 106.788C119.024 106.118 116.136 105.433 113.25 104.745C109.356 103.817 105.464 102.883 101.572 101.946C96.9219 100.826 92.2723 99.7027 87.623 98.5784C82.5295 97.3467 77.4362 96.1132 72.3429 94.8802C67.0316 93.5943 61.7203 92.3085 56.4087 91.0243C51.1994 89.7649 45.9896 88.507 40.779 87.2523C35.896 86.0766 31.0124 84.9037 26.1275 83.7366C21.8866 82.7235 17.6449 81.7147 13.4009 80.7158C10.0361 79.9239 6.67012 79.137 3.29999 78.3692C2.64795 78.2206 1.99571 78.073 1.34325 77.9263C0.00456034 77.6254 -0.567303 79.7306 0.775798 80.0324Z" fill="#301B00"/>
<path d="M127.195 109.54C134.345 103.414 141.321 97.0838 148.2 90.6418C154.517 84.7259 160.781 78.7504 167.181 72.9277C171.297 69.1835 175.464 65.5001 179.686 61.8818C180.016 61.5988 180.11 60.9218 179.853 60.5584C179.523 60.0938 179.056 59.9901 178.551 59.837C178.326 59.7687 178.101 59.7019 177.876 59.6327C177.74 59.5908 177.202 59.3589 177.655 59.5844C177.783 59.715 177.91 59.8455 178.038 59.9761C178.037 59.9744 178.036 59.9727 178.035 59.9712C177.697 59.494 177.106 59.2611 176.575 59.5794C176.114 59.8552 175.852 60.593 176.192 61.0736C176.52 61.5384 176.989 61.6421 177.493 61.7951C177.718 61.8633 177.943 61.9302 178.168 61.9991C178.304 62.041 178.842 62.2727 178.389 62.0474C178.261 61.9168 178.134 61.7863 178.006 61.6557C178.007 61.6574 178.008 61.6591 178.01 61.6606C178.065 61.2195 178.121 60.7783 178.176 60.3372C171.034 66.4587 164.067 72.7846 157.195 79.221C150.877 85.1393 144.61 91.1159 138.207 96.9393C134.086 100.687 129.913 104.374 125.685 107.995C125.243 108.374 125.303 109.149 125.685 109.54C126.123 109.988 126.751 109.92 127.195 109.54Z" fill="#301B00"/>
<path d="M56.9364 91.1988C61.0169 89.5833 64.2905 86.4255 67.652 83.6572C71.2633 80.6835 74.8951 77.7359 78.5362 74.8006C85.8725 68.8861 93.2465 63.0213 100.577 57.0995C104.654 53.8062 108.717 50.495 112.75 47.1464C113.198 46.7747 113.128 45.9886 112.75 45.602C112.308 45.1488 111.69 45.2291 111.241 45.602C104.133 51.5034 96.9331 57.2892 89.7265 63.0649C82.4543 68.893 75.1721 74.7089 67.9624 80.6182C66.0244 82.2067 64.1052 83.8198 62.1621 85.4019C60.3878 86.8467 58.4984 88.2496 56.3692 89.0925C55.8319 89.3052 55.4602 89.8264 55.6239 90.436C55.7648 90.9615 56.396 91.413 56.9364 91.1988Z" fill="#301B00"/>
<path d="M113.375 46.538C116.069 44.7515 118.791 43.6293 121.744 42.5799C125.632 41.1985 129.64 40.1693 133.685 39.4034C142.811 37.6753 152.395 37.2153 161.56 38.9092C166.626 39.8456 171.592 41.4648 176.06 44.1132C177.251 44.8189 178.327 42.9321 177.138 42.2272C168.759 37.2612 158.801 35.6582 149.234 35.7015C140.192 35.7423 131.015 37.1794 122.412 40.0486C118.924 41.2118 115.39 42.6012 112.298 44.6518C111.15 45.4138 112.218 47.3054 113.375 46.538Z" fill="#301B00"/>
<path d="M1.59769 79.702C3.98883 78.5585 5.35124 75.8495 6.13023 73.403C7.05005 70.515 7.34134 67.3305 6.95834 64.319C6.75037 62.6835 6.3529 61.0875 5.59069 59.6242C4.94432 58.3835 3.10133 59.4855 3.74791 60.7266C4.26102 61.7116 4.58756 62.8725 4.78713 64.0977C4.98671 65.3222 5.02322 66.8037 4.94054 68.1437C4.78356 70.6847 4.17686 73.3689 2.86608 75.5334C2.25875 76.5362 1.57041 77.3137 0.520481 77.8158C-0.00164928 78.0654 -0.134282 78.8343 0.137696 79.31C0.450807 79.8579 1.07367 79.9526 1.59769 79.702Z" fill="#301B00"/>
<path d="M125.557 84.0224C125.557 91.7055 125.557 99.3886 125.557 107.072C125.557 108.477 127.691 108.479 127.691 107.072C127.691 99.3886 127.691 91.7055 127.691 84.0224C127.691 82.6171 125.557 82.6147 125.557 84.0224Z" fill="#301B00"/>
<path d="M127.85 83.1385C134.322 78.1714 140.819 73.24 147.292 68.274C154.168 62.9985 161.023 57.6935 167.793 52.2769C171.214 49.5396 174.614 46.7729 177.962 43.943C178.407 43.5672 178.342 42.7878 177.962 42.3986C177.522 41.9484 176.899 42.0219 176.453 42.3986C170.306 47.5931 164 52.5905 157.663 57.5378C150.874 62.8374 144.033 68.0671 137.188 73.2915C133.715 75.9427 130.24 78.592 126.773 81.2526C126.313 81.6059 126.076 82.1963 126.39 82.7468C126.656 83.2109 127.387 83.4944 127.85 83.1385Z" fill="#301B00"/>
<path d="M176.269 43.6879C176.224 44.6595 176.177 45.6312 176.129 46.6026C176.103 47.1249 176.077 47.647 176.05 48.1694C176.045 48.2682 175.931 48.7815 176.036 48.4647C176.006 48.5542 175.943 48.7321 175.925 48.7757C175.659 49.4344 175.265 50.095 175.492 50.8328C175.556 51.042 175.668 51.2321 175.812 51.3933C175.848 51.4389 175.889 51.4791 175.935 51.5134C176.18 51.7035 176.224 51.7398 176.068 51.6223C175.93 51.1427 175.868 51.0785 175.881 51.4295C175.877 51.4995 175.873 51.5695 175.869 51.6397C175.855 51.9204 175.84 52.2009 175.825 52.4814C175.773 53.4627 175.721 54.4438 175.67 55.4251C175.655 55.7097 175.672 56.0454 175.593 56.2685C175.474 56.6014 175.287 56.9101 175.206 57.2574C175.1 57.7131 175.176 58.163 175.368 58.5791C175.392 58.6315 175.52 58.9468 175.506 58.8405C175.503 58.822 175.479 59.1583 175.475 59.2378C175.424 60.2477 175.376 61.2577 175.329 62.2678C175.265 63.6729 177.399 63.6697 177.463 62.2678C177.508 61.2923 177.555 60.3168 177.604 59.3415C177.629 58.8228 177.639 58.3651 177.417 57.8858C177.394 57.8374 177.291 57.5808 177.259 57.5814C177.353 57.5791 177.181 58.0462 177.33 57.6201C177.417 57.372 177.598 57.0417 177.683 56.7451C177.804 56.3254 177.782 55.8583 177.804 55.4251C177.856 54.4438 177.908 53.4627 177.959 52.4814C178.004 51.6287 178.208 50.6593 177.512 50.0218C176.974 49.5302 177.752 50.2469 177.547 50.4456C177.603 50.3912 177.634 50.1908 177.662 50.1204C177.759 49.8775 177.918 49.5444 178.024 49.2533C178.306 48.4806 178.217 47.5182 178.258 46.7061C178.308 45.7003 178.356 44.6943 178.403 43.6881C178.467 42.2826 176.333 42.2861 176.269 43.6879Z" fill="#301B00"/>
<path d="M57.8905 91.7586C66.1286 87.9943 74.8113 85.2473 83.673 83.5252C92.5358 81.803 101.591 81.1365 110.604 81.5225C115.669 81.7394 120.715 82.2933 125.708 83.1921C126.275 83.2941 126.858 83.036 127.021 82.4295C127.162 81.9024 126.846 81.1889 126.275 81.086C117.169 79.4465 107.889 78.887 98.6576 79.4437C89.4332 79.9999 80.2609 81.6316 71.4038 84.3292C66.4263 85.845 61.5551 87.706 56.8133 89.8727C56.287 90.1132 56.1621 90.8974 56.4305 91.3669C56.7476 91.9214 57.3623 92 57.8905 91.7586Z" fill="#301B00"/>
<path d="M57.5494 92.0815C63.3161 86.1496 68.4266 79.5446 72.7648 72.4523C77.1043 65.3579 80.6673 57.7629 83.3797 49.8669C84.9014 45.4372 86.1444 40.9097 87.1035 36.3181C87.3897 34.9474 85.3329 34.3615 85.0456 35.7375C83.3684 43.7677 80.8213 51.6089 77.4396 59.0564C74.0448 66.5334 69.8482 73.6355 64.9341 80.1698C62.1919 83.8161 59.211 87.2759 56.0405 90.5372C55.0705 91.5347 56.579 93.0797 57.5494 92.0815Z" fill="#301B00"/>
<path d="M86.8138 36.8398C93.3084 32.5173 99.9013 28.3474 106.623 24.4046C112.445 20.9895 118.364 17.7436 124.398 14.7372C127.448 13.2172 130.529 11.7602 133.639 10.3745C134.168 10.1391 134.289 9.34653 134.022 8.88026C133.703 8.32185 133.093 8.25205 132.562 8.48852C126.876 11.0218 121.294 13.7949 115.804 16.7472C109.482 20.1471 103.281 23.7813 97.179 27.5788C93.3275 29.9756 89.5158 32.4389 85.7368 34.9541C84.5895 35.7174 85.6579 37.6091 86.8138 36.8398Z" fill="#301B00"/>
<path d="M132.057 9.32382C127.295 19.0995 122.015 28.6155 116.239 37.8016C114.609 40.3937 112.938 42.9584 111.225 45.4933C110.897 45.9787 111.138 46.7058 111.608 46.9875C112.138 47.3048 112.739 47.0823 113.068 46.5958C119.139 37.6111 124.689 28.2568 129.745 18.6371C131.171 15.9223 132.556 13.1848 133.9 10.4261C134.511 9.17199 132.671 8.06438 132.057 9.32382Z" fill="#301B00"/>
<path d="M55.8297 89.793C56.5455 76.1973 55.771 62.5362 53.5538 49.1117C52.9349 45.3641 52.1996 41.6373 51.3549 37.9363C51.1914 38.3474 51.0279 38.7585 50.8644 39.1695C58.5031 33.987 66.8012 30.0195 75.2954 26.5505C83.2951 23.2835 91.4395 20.3624 99.2463 16.6195C103.68 14.4939 107.985 12.0912 112.052 9.29548C113.186 8.51564 112.119 6.62283 110.975 7.40955C103.83 12.3217 95.9784 15.938 87.997 19.1661C79.8404 22.4648 71.5702 25.4871 63.6388 29.3389C58.8513 31.6638 54.2054 34.2862 49.7874 37.2838C49.3772 37.5622 49.1843 38.0233 49.297 38.5171C52.2802 51.5867 53.8447 64.9749 53.9525 78.3964C53.983 82.197 53.8954 85.9979 53.6957 89.793C53.6216 91.1976 55.7558 91.1933 55.8297 89.793Z" fill="#301B00"/>
<path d="M112.076 20.6314C112.203 16.573 112.589 12.5239 112.596 8.46141C112.598 7.05593 110.464 7.05378 110.462 8.46141C110.455 12.5241 110.069 16.573 109.942 20.6314C109.897 22.0373 112.032 22.0358 112.076 20.6314Z" fill="#301B00"/>
<path d="M98.1697 16.4337C97.8295 12.0269 97.0024 7.6724 95.656 3.47119C95.4891 2.95079 94.9045 2.49053 94.3433 2.70852C89.2317 4.69476 84.2153 6.94345 79.2254 9.22758C74.5554 11.3652 69.9146 13.5701 65.2996 15.8289C56.0817 20.3404 46.9176 25.0206 38.0394 30.2033C34.4697 32.2873 30.891 34.4318 27.5971 36.9565C27.1345 37.311 26.8974 37.892 27.2143 38.4506C30.9567 45.0502 34.492 51.772 37.8088 58.6059C41.1139 65.4158 44.2087 72.3343 47.0718 79.3508C48.6949 83.3286 50.2455 87.3374 51.7261 91.3732C51.9286 91.925 52.4469 92.3024 53.0387 92.1359C53.5563 91.9903 53.9877 91.3475 53.7839 90.7925C51.1309 83.5615 48.2506 76.4176 45.1472 69.3769C42.0677 62.3905 38.766 55.5065 35.2479 48.7405C33.2534 44.9042 31.1882 41.1066 29.0568 37.3482C28.9292 37.8463 28.8016 38.3443 28.674 38.8424C31.5416 36.6446 34.6318 34.7471 37.7263 32.908C41.8178 30.4763 45.9885 28.1844 50.1874 25.9536C59.4619 21.026 68.888 16.3884 78.4101 11.9844C83.853 9.46704 89.3251 6.98511 94.9105 4.81482C94.473 4.56052 94.0354 4.30623 93.5979 4.05215C94.8847 8.06779 95.7101 12.2209 96.0354 16.4341C96.0807 17.0222 96.4933 17.5262 97.1025 17.5262C97.6448 17.5258 98.2152 17.025 98.1697 16.4337Z" fill="#301B00"/>
<path d="M49.9718 89.8719C45.1654 82.861 40.1892 75.9734 35.0535 69.2115C29.9327 62.4693 24.6489 55.8568 19.2081 49.3822C16.1492 45.7422 13.0401 42.1464 9.8836 38.5947C9.81162 39.1664 9.73964 39.7382 9.66766 40.3099C18.5317 34.4779 27.5972 28.9677 36.8455 23.798C46.094 18.6284 55.5228 13.7968 65.1086 9.31664C70.4507 6.81967 75.8416 4.43267 81.2778 2.15843C80.8761 1.99112 80.4745 1.82383 80.0728 1.65652C81.2789 3.84507 82.2593 6.13755 82.9999 8.53336C83.4127 9.86862 85.4737 9.29817 85.0578 7.95283C84.2635 5.3837 83.2089 2.90133 81.9154 0.554276C81.7068 0.175629 81.1351 -0.125252 80.7104 0.0523666C70.87 4.16916 61.1705 8.63602 51.6421 13.4609C42.1971 18.2435 32.919 23.3717 23.8323 28.8328C18.6889 31.924 13.6076 35.1229 8.59024 38.424C7.99382 38.8164 7.89917 39.6046 8.37429 40.1392C13.9656 46.4312 19.407 52.8624 24.6892 59.4283C29.9136 65.9228 34.9828 72.5478 39.8881 79.2979C42.6878 83.1505 45.4342 87.0435 48.1288 90.9741C48.4593 91.4563 49.0621 91.6812 49.5888 91.3659C50.0551 91.0869 50.3044 90.3571 49.9718 89.8719Z" fill="#301B00"/>
<path d="M5.47019 61.2072C10.0537 58.3881 15.0308 56.2159 19.3826 53.011C19.8498 52.6669 20.076 52.0602 19.7654 51.5168C19.4955 51.0445 18.7757 50.7786 18.3054 51.1251C13.9538 54.3299 8.97674 56.5022 4.39298 59.3213C3.21714 60.0447 4.28889 61.9338 5.47019 61.2072Z" fill="#301B00"/>
<path d="M127.541 86.1762C129.334 84.6131 131.22 83.1546 133.074 81.6694C136.572 78.8672 140.084 76.0836 143.6 73.3061C147.785 70.0003 151.979 66.7048 156.181 63.4211C160.104 60.3548 164.034 57.2972 167.983 54.264C170.697 52.1781 173.41 50.0844 176.182 48.0785C176.385 47.9318 176.588 47.7862 176.792 47.6414C177.241 47.3235 176.814 46.5658 176.361 46.8871C173.795 48.7062 171.301 50.6366 168.802 52.5505C164.933 55.5131 161.084 58.5032 157.242 61.5014C152.99 64.8197 148.747 68.1506 144.512 71.4919C140.871 74.3645 137.235 77.2438 133.611 80.1391C131.482 81.8408 129.336 83.5274 127.253 85.2886C127.147 85.3779 127.042 85.4677 126.937 85.5585C126.519 85.9237 127.125 86.539 127.541 86.1762Z" fill="#301B00"/>
<path d="M127.398 89.1116C129.229 87.515 131.142 86.0112 133.027 84.4831C136.565 81.6145 140.116 78.7623 143.672 75.9161C147.936 72.5029 152.208 69.1 156.49 65.7096C160.471 62.5569 164.46 59.4137 168.469 56.2975C171.208 54.1683 173.944 52.0289 176.75 49.9913C176.954 49.8429 177.16 49.6952 177.366 49.5491C177.814 49.231 177.388 48.4735 176.935 48.7948C174.327 50.6434 171.805 52.6236 169.276 54.5824C165.35 57.6234 161.446 60.6953 157.55 63.7758C153.25 67.1752 148.96 70.588 144.677 74.0111C140.951 76.9898 137.23 79.9754 133.521 82.976C131.376 84.7109 129.218 86.4334 127.114 88.2197C127.007 88.3105 126.9 88.4016 126.794 88.4937C126.376 88.8591 126.982 89.4746 127.398 89.1116Z" fill="#301B00"/>
<path d="M127.398 91.1668C129.215 89.5822 131.124 88.1011 133.002 86.5934C136.519 83.7687 140.051 80.9616 143.586 78.1607C147.812 74.8126 152.047 71.475 156.289 68.1494C160.261 65.0363 164.24 61.9319 168.237 58.8527C170.957 56.7567 173.676 54.6524 176.456 52.6386C176.663 52.4887 176.87 52.3394 177.079 52.1917C177.527 51.8738 177.101 51.1161 176.648 51.4374C174.067 53.2671 171.562 55.2129 169.051 57.141C165.15 60.1362 161.269 63.1596 157.395 66.1916C153.106 69.5487 148.826 72.9189 144.553 76.2993C140.863 79.2195 137.177 82.1465 133.503 85.0898C131.365 86.803 129.211 88.5019 127.118 90.2725C127.009 90.3642 126.901 90.4561 126.794 90.5493C126.375 90.9142 126.982 91.5296 127.398 91.1668Z" fill="#301B00"/>
<path d="M127.398 93.5153C129.221 91.9251 131.127 90.4281 133.005 88.9071C136.543 86.0413 140.094 83.1922 143.649 80.349C147.896 76.9523 152.152 73.5662 156.416 70.1923C160.382 67.0551 164.355 63.9273 168.348 60.8262C171.079 58.7048 173.808 56.5736 176.605 54.5429C176.81 54.3941 177.016 54.2461 177.222 54.0997C177.671 53.7816 177.244 53.0241 176.791 53.3454C174.192 55.1881 171.677 57.1604 169.155 59.1119C165.245 62.138 161.357 65.1947 157.475 68.2602C153.177 71.6551 148.888 75.0636 144.608 78.4821C140.909 81.4364 137.215 84.3972 133.533 87.3734C131.385 89.11 129.222 90.8338 127.114 92.6227C127.007 92.7137 126.9 92.805 126.794 92.8976C126.376 93.2627 126.982 93.878 127.398 93.5153Z" fill="#301B00"/>
<path d="M127.398 95.5702C129.233 93.9692 131.155 92.4652 133.048 90.9358C136.602 88.0634 140.169 85.2079 143.74 82.3583C148.009 78.9522 152.286 75.5564 156.573 72.1733C160.58 69.0103 164.595 65.8563 168.629 62.729C171.364 60.6092 174.096 58.4795 176.895 56.4483C177.099 56.3003 177.304 56.1532 177.509 56.0076C177.958 55.6895 177.531 54.932 177.078 55.2533C174.477 57.097 171.959 59.0677 169.435 61.0179C165.496 64.0599 161.58 67.1323 157.671 70.213C153.354 73.6155 149.046 77.031 144.747 80.4569C141.016 83.4294 137.291 86.4087 133.577 89.4033C131.417 91.1454 129.243 92.8743 127.124 94.6696C127.014 94.7633 126.903 94.8573 126.794 94.9525C126.375 95.3176 126.982 95.9331 127.398 95.5702Z" fill="#301B00"/>
<path d="M127.255 97.772C129.063 96.1949 130.952 94.7091 132.814 93.1999C136.297 90.3769 139.793 87.5703 143.293 84.7696C147.473 81.4247 151.661 78.0901 155.859 74.7677C159.797 71.6509 163.743 68.5438 167.708 65.4635C170.417 63.3594 173.124 61.2458 175.898 59.2323C176.1 59.086 176.302 58.9406 176.505 58.7967C176.954 58.4786 176.527 57.7211 176.074 58.0424C173.503 59.8648 171.016 61.8145 168.522 63.7445C164.638 66.7496 160.778 69.7856 156.924 72.8305C152.692 76.1743 148.47 79.5312 144.256 82.8987C140.601 85.8192 136.952 88.7468 133.313 91.6892C131.192 93.405 129.058 95.1084 126.976 96.8751C126.867 96.9677 126.758 97.0605 126.651 97.1544C126.232 97.5195 126.838 98.1348 127.255 97.772Z" fill="#301B00"/>
<path d="M127.541 99.8268C129.368 98.233 131.257 96.7094 133.125 95.1675C136.629 92.277 140.142 89.4004 143.661 86.5297C147.864 83.1012 152.074 79.6829 156.296 76.2783C160.25 73.0885 164.212 69.9081 168.199 66.7599C170.904 64.6238 173.606 62.4751 176.389 60.4451C176.594 60.2954 176.8 60.147 177.007 60.0003C177.456 59.6822 177.029 58.9247 176.576 59.246C173.987 61.0821 171.496 63.0718 168.999 65.0357C165.112 68.0919 161.252 71.183 157.4 74.2841C153.142 77.7123 148.894 81.1556 144.656 84.6092C140.968 87.6136 137.285 90.6252 133.613 93.6499C131.487 95.4009 129.352 97.1425 127.258 98.9331C127.151 99.0246 127.043 99.1165 126.937 99.2091C126.519 99.5744 127.125 100.19 127.541 99.8268Z" fill="#301B00"/>
<path d="M127.254 101.882C129.078 100.291 130.965 98.7741 132.83 97.2361C136.336 94.3451 139.85 91.4639 143.365 88.5835C147.538 85.163 151.714 81.7453 155.889 78.3276C159.776 75.1464 163.663 71.9653 167.547 68.7811C170.191 66.6138 172.837 64.4487 175.469 62.267C175.66 62.1087 175.851 61.9502 176.042 61.7913C176.468 61.4364 175.861 60.8216 175.438 61.1736C173.031 63.1766 170.608 65.1585 168.187 67.1439C164.391 70.2577 160.591 73.3676 156.791 76.4775C152.6 79.9083 148.408 83.3389 144.218 86.7719C140.582 89.7506 136.948 92.7302 133.319 95.7179C131.197 97.4653 129.064 99.2011 126.973 100.987C126.865 101.079 126.758 101.171 126.651 101.264C126.232 101.629 126.838 102.245 127.254 101.882Z" fill="#301B00"/>
<path d="M126.736 105.028C130.146 102.47 133.433 99.7455 136.582 96.8581C139.786 93.9208 142.992 91.0263 146.344 88.2656C152.855 82.9027 159.207 77.3415 165.6 71.8336C169.183 68.748 172.777 65.6773 176.425 62.6724C176.853 62.3198 176.245 61.7051 175.821 62.0547C169.338 67.3962 163.017 72.9389 156.65 78.4225C153.512 81.1244 150.365 83.8146 147.181 86.4581C143.873 89.2038 140.596 91.9552 137.443 94.8865C133.876 98.2009 130.192 101.358 126.305 104.274C125.866 104.603 126.291 105.361 126.736 105.028Z" fill="#301B00"/>
<path d="M57.4889 93.0456C61.3337 91.0493 65.5057 89.8683 69.6933 88.8949C74.1079 87.8687 78.5548 86.9675 83.0208 86.2085C91.989 84.6843 101.091 83.8056 110.188 84.1426C115.338 84.3333 120.468 84.9231 125.519 85.9667C126.056 86.0775 126.285 85.2356 125.746 85.1243C116.705 83.2569 107.445 82.8509 98.2539 83.477C89.0405 84.1048 79.9149 85.7132 70.9019 87.7261C66.1557 88.786 61.412 90.0311 57.0581 92.2916C56.568 92.5456 56.9995 93.2997 57.4889 93.0456Z" fill="#301B00"/>
<path d="M59.9647 91.2705C69.7112 89.745 79.497 88.0929 89.3432 87.4031C96.0822 86.931 102.796 87.2207 109.52 87.7804C114.895 88.2278 120.262 88.7594 125.633 89.246C126.18 89.2956 126.177 88.4217 125.633 88.3723C117.149 87.6034 108.652 86.5942 100.134 86.3208C92.9506 86.0904 85.8112 86.7186 78.6898 87.6397C72.358 88.4589 66.0464 89.4406 59.7378 90.4279C59.1964 90.5128 59.4262 91.3549 59.9647 91.2705Z" fill="#301B00"/>
<path d="M58.5222 93.1899C67.3797 94.0355 76.2079 95.1867 84.9853 96.671C93.5939 98.1267 102.15 99.8986 110.645 101.933C115.534 103.104 120.403 104.362 125.254 105.687C125.785 105.832 126.012 104.989 125.481 104.844C116.847 102.486 108.155 100.346 99.3991 98.5142C90.8798 96.7317 82.3029 95.2455 73.6837 94.0688C68.6418 93.3804 63.5865 92.7997 58.5222 92.3162C57.9755 92.2642 57.9791 93.1381 58.5222 93.1899Z" fill="#301B00"/>
<path d="M59.712 92.2735C62.9783 92.1859 66.2653 92.4774 69.5173 92.7512C74.359 93.1588 79.191 93.6885 84.0158 94.2647C89.4231 94.9103 94.8226 95.6234 100.213 96.3981C105.167 97.1098 110.114 97.8693 115.046 98.7262C118.539 99.3332 122.047 99.95 125.488 100.822C125.774 100.895 126.06 100.97 126.344 101.049C126.875 101.196 127.101 100.354 126.571 100.207C123.358 99.3169 120.056 98.735 116.78 98.1494C111.947 97.2853 107.095 96.5278 102.238 95.8165C96.8582 95.0282 91.469 94.3025 86.0727 93.6402C81.1187 93.0321 76.1579 92.4726 71.1878 92.0235C67.6644 91.7052 64.1178 91.3876 60.5779 91.3887C60.2891 91.3887 60.0004 91.3921 59.7118 91.3998C59.1637 91.4147 59.1615 92.2884 59.712 92.2735Z" fill="#301B00"/>
<path d="M61.5698 92.4414C69.8972 91.3383 78.3096 91.0834 86.695 91.4481C95.1284 91.8147 103.526 92.7885 111.872 94.0565C116.653 94.7827 121.418 95.6046 126.177 96.4663C126.714 96.5636 126.945 95.7219 126.404 95.6239C117.976 94.098 109.521 92.6963 101.013 91.7279C92.643 90.7754 84.2166 90.2507 75.7934 90.4635C71.0372 90.5836 66.2882 90.9427 61.5698 91.5677C61.0325 91.639 61.0258 92.5136 61.5698 92.4414Z" fill="#301B00"/>
<path d="M60.0977 92.2224C64.4359 91.126 68.9206 90.6597 73.3698 90.3479C78.694 89.9748 84.0359 89.8814 89.3712 89.9149C94.6655 89.9482 99.9588 90.1162 105.247 90.3732C109.556 90.5829 113.862 90.8522 118.164 91.1804C120.54 91.3616 122.917 91.5509 125.288 91.7938C125.403 91.8056 125.518 91.8174 125.633 91.83C126.178 91.8898 126.174 91.0156 125.633 90.9563C123.559 90.7298 121.477 90.5674 119.398 90.4027C115.261 90.0751 111.119 89.8043 106.975 89.587C101.731 89.312 96.4817 89.123 91.231 89.0586C85.8323 88.9925 80.4276 89.0496 75.0365 89.367C70.437 89.6377 65.8059 90.0605 61.2935 91.0451C60.8173 91.149 60.3428 91.2607 59.8702 91.3801C59.3376 91.5148 59.5634 92.3575 60.0977 92.2224Z" fill="#301B00"/>
<path d="M6.02678 60.5666C16.7609 63.2788 26.3187 69.2203 35.2854 75.6567C37.835 77.4868 40.3506 79.3661 42.8636 81.2484C43.3075 81.5808 43.7337 80.8231 43.2945 80.494C34.3679 73.8081 25.3034 67.0597 15.0249 62.6959C12.1765 61.4865 9.24813 60.4809 6.25364 59.7243C5.72039 59.5894 5.49289 60.4318 6.02678 60.5666Z" fill="#301B00"/>
<path d="M6.6981 63.5604C16.6635 67.2081 26.1546 72.1718 35.3534 77.4943C37.895 78.9649 40.416 80.473 42.9201 82.0097C43.3925 82.2996 43.8221 81.5445 43.3509 81.2554C34.192 75.6346 24.7949 70.3389 14.9867 65.9929C12.333 64.817 9.6481 63.7148 6.92496 62.718C6.40682 62.5284 6.18374 63.3722 6.6981 63.5604Z" fill="#301B00"/>
<path d="M6.35416 66.8745C16.6394 69.1017 26.0025 74.174 35.1578 79.2783C37.9737 80.8483 40.7879 82.4212 43.603 83.9927C44.0854 84.262 44.5167 83.5079 44.0338 83.2384C39.1663 80.5211 34.3207 77.756 29.4037 75.133C24.7763 72.6644 20.0525 70.3532 15.1368 68.5452C12.3414 67.5171 9.48757 66.6614 6.5808 66.0319C6.04524 65.916 5.81608 66.7581 6.35416 66.8745Z" fill="#301B00"/>
<path d="M5.79512 70.6294C11.6464 71.4535 17.2297 73.526 22.6017 75.9771C27.6478 78.2794 32.5875 80.8325 37.5446 83.3275C40.2612 84.6947 42.977 86.0637 45.7005 87.4164C46.1927 87.6608 46.626 86.9078 46.1314 86.6621C41.2524 84.2388 36.3971 81.7654 31.5214 79.3348C26.3318 76.7479 21.1262 74.1287 15.6581 72.2052C12.5241 71.1027 9.30775 70.2496 6.02219 69.787C5.48495 69.7114 5.25263 70.5531 5.79512 70.6294Z" fill="#301B00"/>
<path d="M5.55732 73.283C16.5198 76.7073 27.326 80.6508 37.9292 85.1059C40.9243 86.3644 43.9024 87.6649 46.8642 89.0042C47.3622 89.2293 47.797 88.4767 47.295 88.2499C36.7773 83.494 26.047 79.2341 15.1418 75.5014C12.0363 74.4384 8.91654 73.4189 5.78439 72.4406C5.25764 72.2761 5.03246 73.1191 5.55732 73.283Z" fill="#301B00"/>
<path d="M4.59603 76.9012C15.5706 79.5216 26.4095 82.7308 37.0529 86.5214C40.0615 87.5929 43.0536 88.7112 46.0299 89.8735C46.5436 90.0741 46.7658 89.2299 46.2567 89.0312C35.7281 84.9193 24.99 81.373 14.0962 78.4205C11.0169 77.5859 7.92524 76.7996 4.8231 76.0588C4.28859 75.931 4.06047 76.7731 4.59603 76.9012Z" fill="#301B00"/>
</svg>
