<svg width="60" height="60" viewBox="0 0 60 60" fill="none" xmlns="http://www.w3.org/2000/svg">
<path d="M30 57.0005C44.9116 57.0005 57 44.912 57 30.0005C57 15.0888 44.9116 3.00049 30 3.00049C15.0883 3.00049 3 15.0888 3 30.0005C3 44.912 15.0883 57.0005 30 57.0005Z" fill="#DCD9CE"/>
<path d="M54.5 30.0005C54.5 16.4695 43.5309 5.50049 30 5.50049C16.469 5.50049 5.5 16.4695 5.5 30.0005C5.5 43.5313 16.469 54.5005 30 54.5005C43.5308 54.5005 54.5 43.5313 54.5 30.0005ZM59.5 30.0005C59.5 46.2928 46.2923 59.5005 30 59.5005C13.7076 59.5005 0.5 46.2928 0.5 30.0005C0.5 13.7081 13.7076 0.500488 30 0.500488C46.2923 0.500488 59.5 13.7081 59.5 30.0005Z" fill="#301B00"/>
<path d="M30 14.5005C36.3507 14.5005 41.5 19.663 41.5 26.0142V26.0278C41.4651 32.2163 36.6029 37.288 30.415 37.4995C30.2699 37.5045 30.1243 37.4954 29.9805 37.4751C29.9907 37.4765 29.9985 37.4785 30.0039 37.479C30.0103 37.4796 30.0149 37.4799 30.0166 37.48C30.0155 37.4799 30.0135 37.48 30.0107 37.48C30.0042 37.48 29.9961 37.4805 29.9893 37.481C29.9853 37.4812 29.9826 37.4808 29.9814 37.481C29.8503 37.4974 29.718 37.504 29.5859 37.4995C23.4106 37.2887 18.5 32.2264 18.5 26.0142C18.5 19.668 23.6169 14.5005 30 14.5005ZM23.5 26.0142C23.5 29.4896 26.2094 32.3139 29.6357 32.4937C29.8753 32.4768 30.1277 32.4755 30.377 32.4937C33.7802 32.3083 36.4731 29.502 36.5 26.0142L36.4912 25.6792C36.3167 22.2379 33.4702 19.5005 30 19.5005C26.3954 19.5005 23.5 22.4123 23.5 26.0142Z" fill="#301B00"/>
<path d="M30.0205 36.5005C35.062 36.5006 40.2217 37.7596 44.2979 40.4204L44.6885 40.6821L44.6944 40.686L45 40.9028C48.1301 43.1649 50.1379 46.1966 50.4864 49.5591C50.5668 50.3348 50.281 51.1039 49.7129 51.6382C44.5207 56.5196 37.6136 59.5005 30 59.5005C22.3865 59.5005 15.4794 56.5196 10.2872 51.6382C9.71907 51.1039 9.43333 50.3348 9.51371 49.5591C9.87344 46.0882 12.0007 42.9693 15.3057 40.686L15.3184 40.6772C19.4757 37.8423 24.8156 36.5005 30.0205 36.5005ZM30.0205 41.5005C25.6037 41.5005 21.3066 42.6497 18.1475 44.7993L18.1485 44.8003C16.2784 46.0922 15.212 47.5415 14.7461 48.9126C18.9195 52.4178 24.2149 54.5005 30 54.5005C35.7849 54.5005 41.0797 52.4175 45.253 48.9126C44.787 47.5416 43.7215 46.0921 41.8516 44.8003V44.7993C38.7225 42.6521 34.441 41.5006 30.0205 41.5005Z" fill="#301B00"/>
</svg>
