<svg width="169" height="169" viewBox="0 0 169 169" fill="none" xmlns="http://www.w3.org/2000/svg">
<path d="M53.877 122.604H69.6027C72.5941 122.604 75.0189 120.179 75.0189 117.188V82.8954C75.0189 79.9046 72.5941 77.4792 69.6027 77.4792H53.877C50.8856 77.4792 48.4608 79.9046 48.4608 82.8954V117.188C48.4608 120.179 50.8856 122.604 53.877 122.604Z" fill="#975A1C"/>
<path d="M93.7405 122.604H109.466C112.458 122.604 114.882 120.179 114.882 117.187V66.9054C114.882 63.914 112.458 61.4893 109.466 61.4893H93.7405C90.7491 61.4893 88.3243 63.914 88.3243 66.9054V117.187C88.3243 120.179 90.7491 122.604 93.7405 122.604Z" fill="#975A1C"/>
<path d="M133.605 122.604H149.331C152.322 122.604 154.747 120.179 154.747 117.188V106.244C154.747 103.253 152.322 100.828 149.331 100.828H133.605C130.614 100.828 128.189 103.253 128.189 106.244V117.188C128.189 120.179 130.614 122.604 133.605 122.604Z" fill="#975A1C"/>
<path d="M160.448 138.297H30.4628V8.55185C30.4628 3.82895 26.6339 0 21.911 0C17.1881 0 13.3591 3.82895 13.3591 8.55185V138.297H8.55185C3.82895 138.297 0 142.126 0 146.849C0 151.572 3.82895 155.401 8.55185 155.401H13.3591V160.448C13.3591 165.171 17.1881 169 21.911 169C26.6339 169 30.4628 165.171 30.4628 160.448V155.401H160.448C165.171 155.401 169 151.572 169 146.849C169 142.126 165.171 138.297 160.448 138.297Z" fill="url(#paint0_linear_569_208)"/>
<path d="M53.877 66.5124H69.6027C72.5941 66.5124 75.0189 64.0877 75.0189 61.0962V45.3705C75.0189 42.3791 72.5941 39.9543 69.6027 39.9543H53.877C50.8856 39.9543 48.4608 42.3791 48.4608 45.3705V61.0962C48.4608 64.0877 50.8856 66.5124 53.877 66.5124Z" fill="#975A1C"/>
<path d="M93.7405 50.2636H109.466C112.458 50.2636 114.882 47.8389 114.882 44.8475V29.1217C114.882 26.1303 112.458 23.7056 109.466 23.7056H93.7405C90.7491 23.7056 88.3243 26.1303 88.3243 29.1217V44.8475C88.3243 47.8389 90.7491 50.2636 93.7405 50.2636Z" fill="#975A1C"/>
<path d="M133.605 90.7586H149.331C152.322 90.7586 154.747 88.3338 154.747 85.3424V69.6161C154.747 66.6247 152.322 64.2 149.331 64.2H133.605C130.614 64.2 128.189 66.6247 128.189 69.6161V85.3424C128.189 88.3338 130.614 90.7586 133.605 90.7586Z" fill="#975A1C"/>
<defs>
<linearGradient id="paint0_linear_569_208" x1="0" y1="0" x2="169" y2="169" gradientUnits="userSpaceOnUse">
<stop stop-color="#975A1C"/>
<stop offset="1" stop-color="#301B00"/>
</linearGradient>
</defs>
</svg>
