<svg width="112" height="112" viewBox="0 0 112 112" fill="none" xmlns="http://www.w3.org/2000/svg">
<path d="M67.5903 75.55C80.6517 75.55 91.2401 66.9203 91.2401 56.275C91.2401 45.6297 80.6517 37 67.5903 37C54.5288 37 43.9404 45.6297 43.9404 56.275C43.9404 66.9203 54.5288 75.55 67.5903 75.55Z" fill="#975A1C"/>
<path d="M31.5518 32.9999C36.5075 28.5109 48.4162 26.8049 56.8261 28.4999M34.5252 38.9999C39.481 35.4999 43.9411 35.4999 50.8792 35.4999" stroke="#301B00" stroke-width="2"/>
<path d="M71.6942 37.434C71.6942 47.614 60.3782 55.867 46.4198 55.867C35.5459 55.867 32.0135 63.543 28.7942 63.981C28.144 64.069 27.6742 63.468 27.5454 62.819C26.0735 55.354 27.245 49.815 25.0358 47.265C22.5718 44.419 21.1455 41.048 21.1455 37.434C21.1455 27.253 32.4605 19 46.4198 19C60.3782 19 71.6942 27.253 71.6942 37.434Z" stroke="#301B00" stroke-width="2"/>
<path d="M45.924 59.434C45.924 69.614 57.0169 77.867 70.7027 77.867C81.3447 77.867 84.8137 85.517 87.9656 85.978C88.6128 86.073 89.0806 85.468 89.2055 84.821C90.6496 77.355 89.4999 71.816 91.6665 69.265C94.083 66.419 95.4815 63.048 95.4815 59.434C95.4815 49.253 84.3875 41 70.7027 41C57.0169 41 45.924 49.253 45.924 59.434Z" stroke="#301B00" stroke-width="2"/>
</svg>
