<svg width="45" height="45" viewBox="0 0 45 45" fill="none" xmlns="http://www.w3.org/2000/svg">
<path fill-rule="evenodd" clip-rule="evenodd" d="M34.9461 13.9818C35.3491 12.0604 33.4197 10.4638 31.5493 11.1706L8.62142 19.8352C6.53262 20.6246 6.43955 23.4816 8.47272 24.3994L13.4658 26.6535L15.841 34.7848C15.9644 35.2072 16.3071 35.5343 16.7418 35.6445C17.1765 35.7546 17.6384 35.6316 17.956 35.3209L21.6148 31.7421L26.7402 35.502C28.2279 36.5934 30.3708 35.7985 30.7444 34.0166L34.9461 13.9818ZM9.53502 22.1481L32.4629 13.4835L28.2612 33.5184L22.2564 29.1134C21.7518 28.7432 21.0457 28.7923 20.5997 29.2285L19.0326 30.7614L19.5034 28.2284L28.7296 19.2042C29.1787 18.7651 29.2261 18.0687 28.8406 17.5751C28.4552 17.0815 27.7559 16.9431 27.2046 17.2512L14.4629 24.3727L9.53502 22.1481ZM16.0165 26.3601L16.7851 28.9914L17.0802 27.4039C17.1263 27.1558 17.2487 26.9273 17.431 26.7491L20.2447 23.9971L16.0165 26.3601Z" fill="#301B00"/>
<circle cx="22.5" cy="22.5" r="21.5" stroke="#301B00" stroke-width="2"/>
</svg>
