<svg width="39" height="44" viewBox="0 0 39 44" fill="none" xmlns="http://www.w3.org/2000/svg">
<path d="M23.815 2.03072H6.5086C5.49306 2.03072 4.63872 2.79182 4.52188 3.80062L2.22229 23.6556C2.0983 24.7262 2.85056 25.6921 3.89973 25.9385C10.841 27.5685 13.5707 31.7696 14.3636 35.3104C14.8773 37.6046 15.1178 40.3298 17.1691 41.4786C19.635 42.8596 21.6921 41.2627 22.9534 39.4214C23.5994 38.4782 23.6548 37.2795 23.361 36.1747L21.2111 28.0888C20.8736 26.8195 21.8305 25.5749 23.144 25.5749H31.9956C36.7949 25.5749 37.2676 20.224 36.904 17.5485C36.0314 4.27812 27.8144 1.67399 23.815 2.03072Z" stroke="#301B00" stroke-width="3"/>
</svg>
