<svg width="120" height="130" viewBox="0 0 120 130" fill="none" xmlns="http://www.w3.org/2000/svg">
<path d="M114.539 98.8677C111.51 88.7649 103.113 80.8582 92.3553 77.979L72.5102 72.6667H59.9993H47.4883L27.6432 77.979C16.8851 80.8582 8.48855 88.7649 5.46005 98.8677L0 107.41C15.5979 121.394 36.7215 130 60.0007 130C83.28 130 104.404 121.394 120 107.41L114.539 98.8677Z" fill="#301B00"/>
<path d="M30.6872 34.1293L30.6872 34.1288C30.7414 32.8631 31.1554 31.7719 31.7313 31.0293C32.3092 30.284 32.9863 29.9549 33.61 29.9785L33.6106 29.9785C34.2313 30.0016 34.8737 30.3782 35.3834 31.1612C35.892 31.9422 36.2115 33.0595 36.1574 34.3253C36.1024 35.61 35.6587 37.1372 34.9984 38.3146C34.6695 38.9012 34.3123 39.3548 33.9673 39.6463C33.622 39.938 33.3556 40.0148 33.1689 40.0077C32.9832 40.0007 32.7268 39.905 32.4099 39.5905C32.0927 39.2756 31.7764 38.7982 31.4992 38.1897C30.9428 36.9681 30.6315 35.4138 30.6872 34.1293Z" stroke="#301B00" stroke-width="2"/>
<path d="M87.9894 38.2016C88.554 36.9833 88.8759 35.4306 88.8294 34.1454C88.7835 32.8787 88.377 31.7848 87.8065 31.0388C87.2343 30.2904 86.5601 29.9573 85.9359 29.9772L87.9894 38.2016ZM87.9894 38.2016C87.708 38.8086 87.3886 39.2842 87.0691 39.5973M87.9894 38.2016L87.0691 39.5973M87.0691 39.5973C86.75 39.91 86.4929 40.0042 86.3072 40.0101M87.0691 39.5973L86.3072 40.0101M86.3072 40.0101C86.1207 40.016 85.8551 39.9378 85.5121 39.6442M86.3072 40.0101L85.5121 39.6442M85.5121 39.6442C85.1693 39.3507 84.8154 38.8951 84.4905 38.3066M85.5121 39.6442L84.4905 38.3066M84.4905 38.3066C83.8383 37.1252 83.4049 35.5953 83.3583 34.3098M84.4905 38.3066L83.3583 34.3098M83.3583 34.3098C83.3124 33.0433 83.6393 31.9282 84.1531 31.1502M83.3583 34.3098L84.1531 31.1502M84.1531 31.1502C84.6682 30.3705 85.3137 29.997 85.9359 29.9772L84.1531 31.1502Z" stroke="#301B00" stroke-width="2"/>
<path d="M59.9994 6.44116H59.9995C73.8672 6.43985 85.1554 17.992 85.1554 32.2966C85.1554 39.4814 82.3068 47.9596 77.6732 54.6358C73.0252 61.3329 66.7498 65.9916 59.9994 65.9916C53.2498 65.9916 46.9743 61.3329 42.3261 54.6358C37.6924 47.9596 34.8434 39.4814 34.8434 32.2966C34.8434 17.992 46.1301 6.44116 59.9994 6.44116Z" stroke="#301B00" stroke-width="2"/>
<path d="M91.929 17.4949C91.9713 15.7767 91.3524 13.942 89.8725 12.9275C90.2534 12.9741 90.4242 12.4182 90.1863 12.1362C89.9484 11.8528 89.5324 11.7802 89.1631 11.6844C86.8162 11.0819 85.2706 9.01593 83.1879 7.83575C81.9429 7.12928 80.4528 6.70759 79.5289 5.65336C79.2531 5.33846 79.0312 4.93183 79.1333 4.53615C79.1771 4.36912 79.2764 4.21577 79.2954 4.04463C79.3523 3.523 78.7072 3.21358 78.1759 3.05065C74.9095 2.04982 71.6183 0.211079 68.1884 0.0166632C67.8732 -0.00113544 67.555 -0.00523755 67.2368 0.00708458C63.8011 0.130306 61.3448 1.67742 60.0035 3.94606C58.6607 1.67879 56.2043 0.131675 52.7701 0.00708458C52.4519 -0.00386842 52.1338 -0.00113544 51.8185 0.0166632C48.3886 0.211079 45.096 2.04982 41.831 3.05065C41.2998 3.21358 40.6532 3.52436 40.7116 4.04463C40.7305 4.21577 40.8298 4.36912 40.8736 4.53615C40.9757 4.93183 40.7539 5.33983 40.478 5.65336C39.5542 6.70759 38.0655 7.13065 36.819 7.83575C34.7363 9.01593 33.1907 11.0819 30.8438 11.6844C30.4731 11.7788 30.0586 11.8528 29.8192 12.1362C29.5813 12.4196 29.7521 12.9741 30.133 12.9275C28.6545 13.942 28.0357 15.7767 28.0765 17.4949C28.1189 19.2132 28.7202 20.8698 29.2485 22.5155C29.7769 24.1612 30.2425 25.8781 30.0046 27.5826C29.9257 28.144 29.7725 28.7122 29.8747 29.2708C29.9768 29.8294 30.441 30.3866 31.0452 30.3798C31.9895 30.3702 32.801 29.0764 33.5891 29.5638C33.9379 29.7801 33.992 30.2333 34.0138 30.6248C34.2751 35.1279 35.1537 39.5995 36.6191 43.893C37.6553 42.1296 37.0131 39.9664 36.7782 37.9647C36.368 34.4926 37.8597 32.187 38.7106 29.0216C39.4593 26.2382 38.9995 23.081 41.7347 21.5229C43.0935 20.748 43.9342 19.3446 45.2769 18.545C46.538 17.7948 48.0894 17.662 49.5592 17.4087C51.4901 17.0746 52.773 16.0943 54.4106 15.2016C54.9273 14.9196 59.8444 12.1362 60.0049 12.2457C63.2246 14.4596 68.0031 14.2474 71.2651 16.4489C72.3641 17.191 73.1829 18.2616 74.3169 18.9571C76.1574 20.0853 78.7656 20.2044 80.0193 21.898C80.8819 23.0632 80.7987 24.6075 81.2321 25.9671C82.4333 29.7322 83.7089 33.9121 83.2317 37.9647C82.9952 39.9664 82.3531 42.1296 83.3908 43.893C84.8561 39.5981 85.7333 35.1265 85.996 30.6248C86.0194 30.2333 86.0719 29.7801 86.4207 29.5638C87.2089 29.0764 88.0204 30.3715 88.9632 30.3798C89.5674 30.3852 90.0316 29.828 90.1337 29.2708C90.2359 28.7122 90.0827 28.1453 90.0039 27.5826C89.766 25.8781 90.2315 24.1612 90.7598 22.5155C91.2867 20.8698 91.8866 19.2132 91.929 17.4949Z" fill="#301B00"/>
</svg>
