<svg width="222" height="50" viewBox="0 0 222 50" fill="none" xmlns="http://www.w3.org/2000/svg">
<path d="M111.783 29.9193C109.702 29.9193 108.015 28.212 108.015 26.106V3.81324C108.015 1.70725 109.702 0 111.783 0H202.217C202.697 0 203.087 0.39398 203.087 0.879978V2.93326V4.88087C203.087 5.36687 202.697 5.76085 202.217 5.76085H115.829C114.709 5.76085 113.8 6.68014 113.8 7.81414V9.97947C113.8 11.1135 114.709 12.0327 115.829 12.0327H184.367C184.847 12.0327 185.236 12.4267 185.236 12.9127V14.9596V17.0065C185.236 17.4925 184.847 17.8865 184.367 17.8865H115.829C114.709 17.8865 113.8 18.8058 113.8 19.9398V22.1051C113.8 23.2391 114.709 24.1584 115.829 24.1584H202.217C202.697 24.1584 203.087 24.5524 203.087 25.0384V26.986V29.0393C203.087 29.5253 202.697 29.9193 202.217 29.9193H111.783Z" fill="#301B00"/>
<path d="M131.409 37.0191V17.749H144.351V37.0191L137.88 32.3883L131.409 37.0191Z" fill="#301B00"/>
<path fill-rule="evenodd" clip-rule="evenodd" d="M131.409 17.749H144.351V37.0191L137.88 32.3881L131.409 37.0191V17.749ZM131.697 18.0412V36.4559L137.88 32.0308L144.063 36.4559V18.0412H131.697Z" fill="#301B00"/>
<path d="M221.52 15.7532L209.823 21.7109C209.244 22.0058 208.562 21.5769 208.562 20.9173V9.00211C208.562 8.34261 209.244 7.91366 209.823 8.2086L221.52 14.1662C222.162 14.4932 222.162 15.4263 221.52 15.7532Z" fill="#301B00"/>
<path d="M89.1901 29.9193V5.7609H80.6377V4.3869e-05H105.028V5.7609H96.4755V29.9193H89.1901Z" fill="#301B00"/>
<path d="M70.1845 29.9193V4.3869e-05H77.6509V29.9193H70.1845Z" fill="#301B00"/>
<path d="M41.3145 29.9193V0H56.0459C59.5229 0 62.0849 0.929169 63.7319 2.78751C65.3789 4.64585 66.2024 7.13912 66.2024 10.2673C66.2024 12.2805 65.6991 14.0459 64.6926 15.5636C63.6861 17.0812 62.3136 18.2117 60.5751 18.9551C61.0021 19.2958 61.3376 19.6829 61.5816 20.1165C61.8561 20.5192 62.1459 21.0922 62.4509 21.8355L65.9279 29.9193H58.2419L54.9479 22.3001C54.6734 21.6497 54.3227 21.1851 53.8957 20.9063C53.4687 20.5966 52.8587 20.4417 52.0657 20.4417H48.6802V29.9193H41.3145ZM48.6802 14.6809H54.1244C55.5579 14.6809 56.6712 14.3247 57.4642 13.6123C58.2877 12.869 58.6994 11.754 58.6994 10.2673C58.6994 7.26301 57.2812 5.76085 54.4447 5.76085H48.6802V14.6809Z" fill="#301B00"/>
<path d="M6.91163 29.9193L0 4.3869e-05H7.28025L11.1968 18.0259L15.2517 4.22777V4.3869e-05H21.3339L26.4485 18.0724L30.5494 4.3869e-05H37.8296L30.9641 29.9193H24.0985L19.1222 12.6368L13.7772 29.9193H6.91163Z" fill="#301B00"/>
<path d="M191.79 49.8316L189.323 39.0396H191.922L193.32 45.5416L194.768 40.5645V39.0396H196.939L198.765 45.5584L200.229 39.0396H202.828L200.377 49.8316H197.926L196.149 43.5977L194.241 49.8316H191.79Z" fill="#301B00"/>
<path d="M154.4 49.9993C152.678 49.9993 151.368 49.5524 150.469 48.6587C149.57 47.7649 149.12 46.374 149.12 44.486C149.12 42.4862 149.57 41.0506 150.469 40.1792C151.368 39.3078 152.678 38.8721 154.4 38.8721C156.122 38.8721 157.432 39.3078 158.331 40.1792C159.231 41.0506 159.68 42.4862 159.68 44.486C159.68 46.374 159.231 47.7649 158.331 48.6587C157.432 49.5524 156.122 49.9993 154.4 49.9993ZM154.4 47.7035C155.288 47.7035 155.935 47.4465 156.341 46.9326C156.758 46.4075 156.966 45.592 156.966 44.486C156.966 43.2794 156.758 42.4303 156.341 41.9388C155.935 41.436 155.288 41.1847 154.4 41.1847C153.501 41.1847 152.843 41.436 152.426 41.9388C152.02 42.4303 151.818 43.2794 151.818 44.486C151.818 45.592 152.02 46.4075 152.426 46.9326C152.843 47.4465 153.501 47.7035 154.4 47.7035Z" fill="#301B00"/>
<path d="M109.055 49.8318V39.0398H111.324L115.831 45.4915V39.0398H118.496V49.8318H116.21L111.703 43.3968V49.8318H109.055Z" fill="#301B00"/>
</svg>
