<svg width="45" height="45" viewBox="0 0 45 45" fill="none" xmlns="http://www.w3.org/2000/svg">
<path d="M34.168 12H10.8321C8.71907 12 7 13.6916 7 15.7708V30.2292C7 32.3085 8.71907 34 10.8321 34H34.168C36.281 34 38 32.3084 38 30.2292V15.7708C38.0001 13.6916 36.281 12 34.168 12ZM36.4804 15.7708V30.2292C36.4804 30.5647 36.4056 30.8831 36.2726 31.1701L26.7921 23L36.2726 14.8299C36.4057 15.1169 36.4804 15.4354 36.4804 15.7708ZM34.168 13.4953C34.5151 13.4953 34.8444 13.5715 35.1402 13.7069L23.2244 23.9758C22.8114 24.3316 22.1887 24.3318 21.7757 23.9758L9.85977 13.7069C10.1555 13.5715 10.4848 13.4953 10.832 13.4953H34.168ZM8.72744 31.1702C8.59438 30.8832 8.51967 30.5647 8.51967 30.2293V15.7709C8.51967 15.4354 8.59444 15.117 8.72744 14.83L18.2079 23.0001L8.72744 31.1702ZM10.8321 32.5047C10.4849 32.5047 10.1556 32.4286 9.85983 32.2931L19.4257 24.0495L20.7185 25.1637C21.2264 25.6014 21.8631 25.8201 22.5 25.8201C23.1368 25.8201 23.7738 25.6013 24.2816 25.1637L25.5744 24.0495L35.1402 32.2931C34.8445 32.4286 34.5152 32.5047 34.168 32.5047H10.8321Z" fill="#301B00"/>
<circle cx="22.5" cy="22.5" r="21.5" stroke="#301B00" stroke-width="2"/>
</svg>
