<svg width="112" height="112" viewBox="0 0 112 112" fill="none" xmlns="http://www.w3.org/2000/svg">
<path d="M67.3982 77.2914L61.0217 96.6144C59.9894 99.7434 61.2783 103.221 64.0065 104.674L70.8991 108.345C73.8438 109.914 77.3923 108.568 78.8231 105.338L87.1354 86.5734C88.6082 83.2514 87.2633 79.2534 84.1767 77.7754L75.3474 73.5454C72.2077 72.0424 68.563 73.7604 67.3982 77.2914Z" fill="#975A1C"/>
<path fill-rule="evenodd" clip-rule="evenodd" d="M2.46685 56.482C3.68578 58.668 4.98684 61.74 5.61778 65.075C6.25991 68.463 6.22538 72.222 4.61164 75.587C9.13178 74.91 15.1975 74.457 20.7396 75.001C23.9522 75.316 27.0434 75.971 29.5699 77.148C31.2798 77.944 32.7759 79.002 33.8623 80.395C34.3355 77.818 34.6678 74.559 34.4802 71.365C34.2282 67.099 33.0671 63.205 30.3586 61.041C27.7826 59.809 23.2503 58.119 17.9798 57.042C13.0732 56.04 7.58524 55.582 2.46685 56.482ZM18.3298 55.078C23.8047 56.196 28.5218 57.961 31.2154 59.261C31.2732 59.289 31.3292 59.323 31.3806 59.364C34.8246 62.047 36.0771 66.737 36.3431 71.238C36.61 75.776 35.8951 80.388 35.1503 83.267C35.0982 83.4684 34.9885 83.6473 34.8366 83.7784C34.6848 83.9096 34.4984 83.9865 34.3036 83.9983C34.1089 84.0101 33.9156 83.9562 33.7509 83.8442C33.5862 83.7323 33.4584 83.5678 33.3854 83.374C32.6751 81.485 31.0987 80.041 28.826 78.982C26.5534 77.923 23.6815 77.298 20.5698 76.992C14.3519 76.382 7.39204 77.07 2.88591 77.897C2.70109 77.9309 2.51103 77.9043 2.3405 77.8208C2.16998 77.7372 2.02689 77.6006 1.92989 77.4287C1.83288 77.2567 1.78646 77.0575 1.79667 76.8569C1.80688 76.6563 1.87324 76.4636 1.98711 76.304C4.25511 73.125 4.49591 69.208 3.78844 65.473C3.08098 61.736 1.44578 58.321 0.167113 56.343C0.0794589 56.2076 0.0244081 56.051 0.00685766 55.8873C-0.0106928 55.7236 0.0098014 55.5577 0.0665169 55.4045C0.123232 55.2513 0.214411 55.1155 0.331941 55.0092C0.449471 54.9028 0.589709 54.8293 0.740179 54.795C6.56231 53.475 12.8586 53.961 18.3298 55.078ZM67.2308 11.185C67.4097 11.3212 67.538 11.5206 67.5933 11.7481C67.6486 11.9756 67.6273 12.2167 67.5332 12.429C62.7499 23.229 63.4826 29.676 65.1066 34.13C65.7095 35.784 66.4254 37.152 67.1011 38.443C67.368 38.953 67.6284 39.45 67.873 39.949C68.6999 41.633 69.3747 43.389 68.9202 45.315C68.9044 45.3823 68.8822 45.4477 68.8539 45.51C66.9359 49.702 62.7079 51.89 58.4734 52.983C54.2043 54.085 49.6832 54.139 46.8067 53.853C46.6119 53.8337 46.4277 53.7492 46.2801 53.6116C46.1326 53.474 46.0291 53.2902 45.9843 53.0862C45.9396 52.8821 45.9558 52.6682 46.0306 52.4745C46.1055 52.2809 46.2353 52.1174 46.4016 52.007C47.251 51.444 47.558 50.93 47.6579 50.49C47.7643 50.02 47.6868 49.411 47.349 48.555C47.0111 47.7 46.4716 46.737 45.8062 45.593L45.5635 45.175C44.9708 44.157 44.311 43.025 43.6903 41.793C42.2716 38.977 41.0154 35.565 41.0676 31.446C41.1218 27.319 42.4863 22.597 46.117 17.15C46.2469 16.955 46.4378 16.8165 46.655 16.7596C46.8722 16.7027 47.1012 16.7313 47.3004 16.84C50.765 18.728 54.5571 18.28 57.9927 16.844C61.4292 15.407 64.3842 13.026 66.0352 11.287C66.1916 11.1222 66.3971 11.0217 66.6157 11.003C66.8343 10.9844 67.0521 11.0488 67.2308 11.185ZM47.1922 18.994C44.0748 23.88 42.9791 27.994 42.9343 31.474C42.8876 35.121 43.9946 38.186 45.333 40.844C45.9228 42.014 46.55 43.092 47.1455 44.114L47.3919 44.536C48.0452 45.662 48.664 46.754 49.0672 47.775C49.4704 48.794 49.7168 49.882 49.4714 50.963C49.3892 51.3249 49.2554 51.6709 49.0747 51.989C51.6582 52.056 54.9314 51.839 58.0366 51.039C62.0592 50 65.5648 48.044 67.1319 44.727C67.3587 43.619 67.0078 42.483 66.221 40.88C66.0156 40.461 65.7804 40.012 65.5303 39.533C64.8368 38.209 64.022 36.651 63.3687 34.858C61.7494 30.416 61.0503 24.438 64.3002 15.412C62.6986 16.63 60.7731 17.828 58.6712 18.707C55.1768 20.168 51.087 20.788 47.1922 18.994ZM72.1598 64.086C72.3665 63.9881 72.5993 63.9739 72.8151 64.046C73.0308 64.118 73.2149 64.2716 73.333 64.478C75.2706 67.866 78.569 69.492 82.0512 70.108C85.5363 70.725 89.0736 70.302 91.2418 69.725C91.4547 69.6686 91.6793 69.6943 91.8763 69.7976C92.0732 69.9009 92.23 70.0753 92.3189 70.2901C92.4079 70.5048 92.4235 70.7463 92.3629 70.9721C92.3023 71.198 92.1694 71.3937 91.9875 71.525C87.4702 74.777 85.1508 77.562 83.9627 79.982C82.7867 82.379 82.671 84.516 82.7512 86.622C82.7671 87.039 82.7923 87.466 82.8184 87.901C82.9183 89.593 83.0256 91.398 82.6038 93.151C82.0456 95.467 80.6111 97.645 77.4835 99.837C77.313 99.9563 77.1107 100.013 76.9076 99.997L76.9067 99.998L76.8936 99.997L76.8563 99.994L76.7144 99.983C75.88 99.9134 75.0461 99.8351 74.2131 99.748C72.127 99.5311 70.046 99.261 67.9719 98.938C65.605 98.566 63.0822 98.083 60.8692 97.472C58.6908 96.872 56.6832 96.114 55.4447 95.132C55.3106 95.0258 55.2056 94.883 55.1405 94.7185C55.0754 94.554 55.0527 94.3738 55.0746 94.1967C55.0965 94.0196 55.1623 93.852 55.2651 93.7114C55.368 93.5707 55.5041 93.4622 55.6594 93.397C59.6447 91.723 61.1007 89.841 61.6234 87.97C61.8968 86.994 61.9407 85.937 61.8642 84.768C61.8082 83.914 61.6962 83.055 61.5748 82.14C61.5272 81.78 61.4787 81.413 61.432 81.034C61.11 78.414 60.9094 75.454 62.3187 72.478C63.728 69.503 66.6512 66.696 72.1598 64.086ZM76.7228 97.977C79.3791 96.052 80.3974 94.307 80.7968 92.651C81.1375 91.236 81.0563 89.844 80.962 88.201C80.934 87.725 80.906 87.228 80.8855 86.703C80.7996 84.433 80.9172 81.891 82.3107 79.051C83.3486 76.938 85.064 74.715 87.8267 72.318C85.9628 72.478 83.8526 72.454 81.7479 72.082C78.2012 71.454 74.5547 69.812 72.198 66.263C67.3802 68.665 65.0674 71.093 63.9847 73.383C62.8479 75.781 62.9674 78.211 63.2828 80.773C63.3239 81.107 63.3687 81.447 63.4135 81.792C63.5386 82.732 63.6655 83.699 63.7262 84.629C63.8102 85.921 63.7747 87.245 63.4126 88.543C62.776 90.821 61.2062 92.781 58.115 94.423C58.9932 94.818 60.0862 95.191 61.335 95.535C63.4583 96.122 65.9083 96.593 68.2435 96.96C71.0588 97.398 73.8868 97.7372 76.7228 97.977Z" fill="#301B00"/>
<path d="M15.9567 68.5118L17.0123 68.5558C16.4859 68.3628 15.855 67.6878 15.9026 66.5878C15.9623 65.2068 17.2251 63.9118 19.4362 64.0048C21.6482 64.0968 22.7953 65.4918 22.7355 66.8728C22.6889 67.9728 22.0019 68.5928 21.4606 68.7418L25.1995 68.8978L25.109 70.9998L15.8662 70.6148L15.9567 68.5118ZM19.3727 68.6548C20.1437 68.6868 20.6421 68.0948 20.6673 67.5088C20.6953 66.8368 20.1605 66.2628 19.341 66.2288C18.5206 66.1948 17.9382 66.7218 17.9093 67.3938C17.8841 67.9808 18.3293 68.6108 19.1002 68.6438L19.3727 68.6548ZM20.5338 61.4358C20.5655 60.6328 21.1554 59.9638 21.9926 60.0018C22.8279 60.0388 23.3637 60.7598 23.3319 61.5628C23.3002 62.3668 22.7103 63.0358 21.8731 62.9978C21.0369 62.9608 20.5021 62.2398 20.5338 61.4358ZM52.5957 32.4178L52.7198 33.5958C52.8355 32.9778 53.4357 32.1598 54.5846 32.0178C56.0285 31.8388 57.5741 33.0098 57.8326 35.4778C58.0911 37.9438 56.8274 39.4618 55.3845 39.6398C54.2346 39.7818 53.4805 39.1308 53.2397 38.5568L53.6774 42.7288L51.4813 42.9998L50.3995 32.6898L52.5957 32.4178ZM52.9961 36.2278C53.011 36.4075 53.0591 36.5821 53.1377 36.7416C53.2162 36.9012 53.3235 37.0424 53.4535 37.157C53.5834 37.2717 53.7333 37.3575 53.8945 37.4095C54.0557 37.4614 54.2249 37.4786 54.3923 37.4598C55.0951 37.3728 55.6038 36.6788 55.5086 35.7638C55.4125 34.8488 54.7722 34.2968 54.0703 34.3838C53.9031 34.4065 53.7416 34.4644 53.5953 34.5542C53.449 34.644 53.3207 34.7639 53.2178 34.9071C53.1149 35.0502 53.0395 35.2137 52.9958 35.3882C52.9522 35.5627 52.9412 35.7447 52.9634 35.9238L52.9961 36.2278ZM59.6274 36.0098C60.1239 35.9198 60.5962 36.4398 60.6597 37.3298C60.7231 38.2208 60.3349 38.8988 59.8383 38.9898C59.3418 39.0798 58.8695 38.5598 58.8061 37.6698C58.7435 36.7788 59.1309 36.1008 59.6274 36.0098ZM71.2035 81.5878L70.9581 82.6638C71.2325 82.1668 71.9558 81.6778 72.9218 81.9858C74.1351 82.3728 75.0339 83.9758 74.5178 86.2278C74.0007 88.4788 72.5391 89.3298 71.3258 88.9438C70.3589 88.6358 69.9445 87.7838 69.9193 87.1918L69.0457 90.9998L67.1995 90.4118L69.3583 80.9998L71.2035 81.5878ZM70.4065 85.0678C70.2263 85.8508 70.6529 86.5028 71.1681 86.6678C71.7579 86.8548 72.3721 86.4398 72.5634 85.6048C72.7557 84.7698 72.4029 84.0468 71.8121 83.8588C71.2969 83.6948 70.6501 84.0038 70.4699 84.7888L70.4065 85.0678ZM76.4302 87.0548C77.1526 87.2648 77.6305 88.0258 77.4139 88.8908C77.1955 89.7548 76.4246 90.1548 75.7022 89.9448C74.9798 89.7348 74.5019 88.9728 74.7185 88.1088C74.9369 87.2448 75.7087 86.8448 76.4302 87.0548Z" fill="#301B00"/>
<path fill-rule="evenodd" clip-rule="evenodd" d="M14.3733 21.2C14.4714 21.1212 14.583 21.0639 14.7017 21.0313C14.8204 20.9987 14.944 20.9915 15.0653 21.0101C15.1867 21.0286 15.3034 21.0726 15.4089 21.1395C15.5143 21.2064 15.6065 21.2949 15.68 21.4L21.28 29.4C21.3535 29.5051 21.4071 29.6246 21.4375 29.7518C21.4679 29.879 21.4746 30.0114 21.4573 30.1414C21.44 30.2714 21.3989 30.3965 21.3364 30.5095C21.274 30.6225 21.1914 30.7212 21.0933 30.8C20.9953 30.8788 20.8837 30.9361 20.765 30.9687C20.6462 31.0013 20.5227 31.0085 20.4013 30.99C20.28 30.9714 20.1633 30.9274 20.0578 30.8605C19.9523 30.7936 19.8602 30.7051 19.7867 30.6L14.1867 22.6C14.0381 22.3878 13.9744 22.1211 14.0094 21.8586C14.0444 21.596 14.1753 21.3591 14.3733 21.2ZM90.0172 22.106C90.2386 22.2245 90.407 22.4323 90.4854 22.6838C90.5638 22.9352 90.5458 23.2098 90.4353 23.447L86.702 31.447C86.6472 31.5645 86.5714 31.6694 86.4788 31.7555C86.3862 31.8416 86.2786 31.9073 86.1623 31.9489C86.046 31.9905 85.9232 32.0072 85.8009 31.9979C85.6786 31.9887 85.5592 31.9537 85.4495 31.895C85.3398 31.8363 85.2419 31.755 85.1616 31.6558C85.0812 31.5566 85.0198 31.4414 84.981 31.3168C84.9422 31.1922 84.9266 31.0606 84.9353 30.9295C84.9439 30.7985 84.9766 30.6705 85.0313 30.553L88.7647 22.553C88.8195 22.4355 88.8954 22.3308 88.988 22.2447C89.0807 22.1587 89.1882 22.093 89.3045 22.0515C89.4208 22.01 89.5436 21.9934 89.6659 22.0028C89.7882 22.0121 89.9076 22.0472 90.0172 22.106ZM104.391 84.47C104.456 84.5814 104.5 84.7053 104.521 84.8349C104.541 84.9644 104.537 85.0969 104.509 85.2249C104.482 85.3528 104.431 85.4737 104.36 85.5806C104.289 85.6875 104.199 85.7784 104.095 85.848L96.628 90.848C96.4181 90.9886 96.1647 91.034 95.9235 90.9744C95.6823 90.9148 95.4731 90.7549 95.3419 90.53C95.2107 90.3051 95.1682 90.0336 95.2239 89.7751C95.2796 89.5167 95.4288 89.2926 95.6387 89.152L103.105 84.152C103.209 84.0824 103.325 84.0354 103.446 84.0137C103.567 83.992 103.69 83.9961 103.81 84.0256C103.929 84.0551 104.042 84.1096 104.142 84.1858C104.242 84.2621 104.327 84.3586 104.391 84.47ZM17.7333 92C17.7333 91.7348 17.8317 91.4804 18.0067 91.2929C18.1817 91.1054 18.4191 91 18.6667 91H27.0667C27.3142 91 27.5516 91.1054 27.7266 91.2929C27.9017 91.4804 28 91.7348 28 92C28 92.2652 27.9017 92.5196 27.7266 92.7071C27.5516 92.8946 27.3142 93 27.0667 93H18.6667C18.4191 93 18.1817 92.8946 18.0067 92.7071C17.8317 92.5196 17.7333 92.2652 17.7333 92Z" fill="#301B00"/>
</svg>
