<svg width="45" height="45" viewBox="0 0 45 45" fill="none" xmlns="http://www.w3.org/2000/svg">
<path fill-rule="evenodd" clip-rule="evenodd" d="M8.19572 16.4231C8.38753 16.1572 8.69341 16 9.01888 16H13.4161C13.811 16 14.1704 16.2308 14.3383 16.5922C14.6116 17.1807 14.8748 17.7703 15.1336 18.3502C15.727 19.6798 16.2974 20.9579 16.9147 22.0513C17.3192 22.7675 17.7124 23.3443 18.1001 23.7615V19.2469L16.862 17.6712C16.6187 17.3616 16.5721 16.9386 16.7421 16.5824C16.9121 16.2263 17.2686 16 17.6597 16H23.7722C24.3349 16 24.7911 16.4613 24.7911 17.0303V22.2008C25.2025 21.6809 25.5643 21.118 25.9082 20.5213C26.2049 20.0065 26.4793 19.4828 26.7648 18.9382C26.8343 18.8057 26.9044 18.6719 26.9756 18.5367C27.3339 17.8569 27.715 17.1527 28.153 16.4697C28.3409 16.1768 28.6626 16 29.0079 16H33.2195C33.5348 16 33.8324 16.1477 34.0254 16.3999C34.2183 16.6522 34.2849 16.9805 34.2056 17.2892C33.383 20.4928 31.7788 22.7387 30.2863 24.8239C32.2462 26.6883 33.821 28.9425 34.9136 31.4523C35.0523 31.7709 35.0226 32.1388 34.8345 32.4304C34.6464 32.7219 34.3254 32.8977 33.9811 32.8977H29.3471C29.0998 32.8977 28.8609 32.8067 28.675 32.6417C28.1649 32.189 27.7297 31.6968 27.3395 31.2399C27.2577 31.1441 27.1785 31.0506 27.101 30.9593C26.7968 30.6003 26.52 30.2738 26.2208 29.965C25.7838 29.5141 25.334 29.1392 24.7911 28.8748V31.8674C24.7911 32.3854 24.4107 32.8229 23.9027 32.8892C18.5159 33.5924 14.8971 30.8507 12.4938 27.4145C10.1978 24.1318 8.92201 20.1028 8.12511 17.5861C8.09914 17.5041 8.07367 17.4237 8.04869 17.345C7.94929 17.0316 8.00392 16.689 8.19572 16.4231ZM10.4188 18.0606C11.2153 20.5086 12.3507 23.6414 14.1575 26.2247C16.1378 29.0561 18.8387 31.1191 22.7533 30.9261V27.4946C22.7533 27.1938 22.8834 26.908 23.1093 26.7123C23.3352 26.5165 23.6344 26.4304 23.9284 26.4765C25.6447 26.7458 26.7728 27.5906 27.6762 28.5228C28.0279 28.8858 28.3603 29.2782 28.6686 29.6422C28.741 29.7276 28.812 29.8115 28.8817 29.8931C29.1725 30.2335 29.4514 30.549 29.7453 30.8371H32.3433C31.2947 28.906 29.9129 27.1832 28.2623 25.7553C27.8611 25.4081 27.7886 24.8085 28.0954 24.3738C28.2716 24.1241 28.4471 23.8783 28.6211 23.6347C29.8845 21.8647 31.0638 20.2126 31.8374 18.0606H29.5729C29.2974 18.5236 29.0377 19.0054 28.7739 19.5058C28.7077 19.6315 28.641 19.7588 28.5736 19.8873C28.2866 20.435 27.9882 21.0044 27.6688 21.5587C26.8719 22.9416 25.8901 24.3305 24.3701 25.4444C24.0601 25.6716 23.6502 25.7039 23.3091 25.5279C22.968 25.3519 22.7533 24.9974 22.7533 24.6102V18.0606H19.7706L19.9167 18.2464C20.0599 18.4287 20.1379 18.6546 20.1379 18.8874V25.5058C20.1379 25.8001 20.0134 26.0804 19.7958 26.2759C19.5783 26.4714 19.2884 26.5635 18.9993 26.529C18.099 26.4213 17.3552 25.9256 16.7521 25.3155C16.1497 24.706 15.6211 23.9159 15.1451 23.0729C14.4775 21.8906 13.841 20.4648 13.229 19.0938C13.0729 18.7442 12.9184 18.3981 12.7654 18.0606H10.4188Z" fill="#301B00"/>
<circle cx="22.5" cy="22.5" r="21.5" stroke="#301B00" stroke-width="2"/>
</svg>
